<svg height="225pt" preserveAspectRatio="xMidYMid meet" viewBox="0 0 225 225" width="225pt" xmlns="http://www.w3.org/2000/svg"><g transform="matrix(.1 0 0 -.1 0 225)"><path d="m691 1843c-6-16-29-107-51-203-98-427-174-632-310-839l-61-93 27-40c95-137 279-236 509-274 120-19 349-15 490 10 212 38 444 128 489 189 19 26 21 42 20 165-1 137-10 207-60 447-56 272-167 661-189 659-17-2-46-59-112-223l-63-156-97 3c-54 1-164 5-244 8l-146 6-22 72c-27 82-90 223-121 266-27 37-44 38-59 3zm152-617c43-17 94-77 125-145 29-66 41-189 23-244-31-94-111-157-198-157-179 0-257 274-132 463 31 47 99 97 132 97 10 0 32-6 50-14zm614 3c59-22 109-89 143-188 61-183-30-361-185-361-78 0-136 45-176 135-58 131 6 345 121 406 40 22 58 23 97 8z"/><path d="m783 1183c-4-21-8-123-8-228 0-202 7-265 30-265s30 63 30 280c0 149-4 211-13 228-18 32-30 27-39-15z"/><path d="m1393 1183c-10-49-10-407 0-455 5-22 14-38 22-38 23 0 30 63 30 280 0 149-4 211-13 228-18 32-30 27-39-15z"/></g></svg>